<svg xmlns="http://www.w3.org/2000/svg" viewBox="0 0 64 64" width="64" height="64">
  <defs>
    <linearGradient id="gold" x1="0%" y1="0%" x2="100%" y2="100%">
      <stop offset="0%" stop-color="#C9A84C"/>
      <stop offset="50%" stop-color="#D4AF37"/>
      <stop offset="100%" stop-color="#B8941F"/>
    </linearGradient>
  </defs>
  <rect width="64" height="64" rx="8" fill="#0A1628"/>
  <g transform="translate(32,32)">
    <!-- Left crescent -->
    <path d="M-18,-20 A22,22 0 0,0 -18,20 L-18,20 A15,22 0 0,1 -6,0 A15,22 0 0,1 -18,-20 Z" fill="url(#gold)"/>
    <!-- Left slash -->
    <path d="M-6,-20 L-2,20 L-8,20 L-12,-20 Z" fill="url(#gold)"/>
    <!-- Right slash -->
    <path d="M4,-20 L8,20 L2,20 L-2,-20 Z" fill="url(#gold)"/>
    <!-- Right arc -->
    <path d="M18,-20 A22,22 0 0,1 18,20 L14,20 A18,18 0 0,0 14,-20 Z" fill="url(#gold)"/>
  </g>
</svg>